<svg id="Capa_1" enable-background="new 0 0 512 512" height="512" viewBox="0 0 512 512" width="512" xmlns="http://www.w3.org/2000/svg"><g><g><path d="m284.01 38.115h-208.56c6.294 6.743 10.152 15.805 10.152 25.764 0 9.949-3.858 19.021-10.152 25.764h361.102c-6.294-6.743-10.152-15.816-10.152-25.764 0-9.959 3.858-19.021 10.152-25.764h-64.174z" fill="#9ebccf"/></g><g><circle cx="47.798" cy="63.876" fill="#ff5c7f" r="37.798"/></g><g><circle cx="464.202" cy="63.876" fill="#ff5c7f" r="37.798"/></g><g><path d="m429.148 394.668-168.364 91.254-164.163-91.254v-305.026h332.527z" fill="#ffd88a"/></g><g><path d="m359.361 296.438-.001-106.34c-22.175 12.325-50.486 21.415-67.972 24.666 3.251-17.487 12.341-45.798 24.666-67.974h-106.34c12.325 22.175 21.415 50.487 24.666 67.973-17.486-3.252-45.798-12.341-67.973-24.666v106.34c22.175-12.325 50.486-21.414 67.972-24.666-3.251 17.486-12.341 45.797-24.665 67.973l106.339-.001c-12.325-22.175-21.414-50.485-24.666-67.972 17.487 3.253 45.798 12.343 67.974 24.667z" fill="#f9f5f3"/></g><g><path d="m464.202 16.078c-12.137 0-23.226 4.555-31.665 12.036h-60.161c-5.522 0-10 4.478-10 10s4.478 10 10 10h46.687c-3.533 10.122-3.535 21.405 0 31.527l-326.125.002c3.533-10.123 3.533-21.405 0-31.528h191.072c5.522 0 10-4.478 10-10s-4.478-10-10-10h-204.548c-8.439-7.481-19.527-12.036-31.665-12.036-26.355-.001-47.797 21.442-47.797 47.797s21.442 47.798 47.798 47.798c12.135 0 23.221-4.553 31.659-12.031h7.164v295.025c0 3.631 1.968 6.977 5.142 8.74l164.163 91.254c1.51.84 3.184 1.26 4.858 1.26 1.639 0 3.278-.402 4.765-1.208l168.364-91.254c3.227-1.749 5.235-5.123 5.235-8.792v-290.108c7.29 4.506 15.872 7.114 25.054 7.114 26.355 0 47.798-21.442 47.798-47.798s-21.442-47.798-47.798-47.798zm-444.202 47.798c0-15.328 12.47-27.798 27.798-27.798 12.926 0 23.819 8.868 26.916 20.839.003.011.006.022.009.033.111.431.211.866.302 1.305.003.013.006.026.008.039.369 1.804.563 3.671.563 5.583 0 15.328-12.47 27.798-27.798 27.798s-27.798-12.471-27.798-27.799zm240.845 410.639-154.224-85.729v-289.143h312.527v289.071zm203.357-382.841c-15.131 0-27.798-12.671-27.798-27.798 0-15.119 12.666-27.798 27.798-27.798 15.328 0 27.798 12.47 27.798 27.798s-12.47 27.798-27.798 27.798z"/><path d="m364.431 181.479c-3.055-1.798-6.833-1.844-9.929-.121-15.581 8.66-34.311 15.617-49.631 19.924 4.307-15.322 11.263-34.05 19.924-49.633 1.722-3.098 1.676-6.875-.121-9.929-1.797-3.055-5.075-4.93-8.619-4.93h-106.34c-3.544 0-6.822 1.875-8.619 4.93-1.797 3.054-1.843 6.831-.121 9.929 8.659 15.581 15.615 34.309 19.923 49.632-15.321-4.308-34.051-11.264-49.631-19.924-3.099-1.721-6.874-1.675-9.929.122s-4.93 5.075-4.93 8.619v106.34c0 3.544 1.875 6.822 4.93 8.619s6.831 1.843 9.929.121c15.581-8.66 34.311-15.617 49.631-19.924-4.307 15.32-11.263 34.05-19.924 49.633-1.721 3.097-1.675 6.874.122 9.928 1.797 3.055 5.076 4.93 8.619 4.93l106.339-.001c3.544 0 6.822-1.875 8.619-4.93s1.843-6.831.121-9.929c-8.659-15.58-15.615-34.308-19.923-49.63 15.322 4.308 34.051 11.264 49.632 19.923 3.097 1.723 6.874 1.676 9.929-.121s4.93-5.076 4.93-8.619l-.001-106.34c-.001-3.543-1.876-6.822-4.93-8.619zm-71.215 80.462c-3.239-.602-6.569.43-8.899 2.76-2.33 2.331-3.362 5.659-2.76 8.899 2.733 14.699 9.189 36.165 18.293 56.144l-73.931.001c9.104-19.981 15.561-41.448 18.292-56.145.603-3.24-.43-6.569-2.76-8.899-1.893-1.893-4.443-2.929-7.071-2.929-.607 0-1.22.056-1.828.169-14.697 2.732-36.163 9.188-56.144 18.292v-73.931c19.979 9.104 41.446 15.56 56.145 18.293 3.241.604 6.569-.429 8.899-2.76s3.362-5.659 2.76-8.899c-2.733-14.7-9.189-36.167-18.293-56.146h73.932c-9.104 19.98-15.561 41.448-18.294 56.146-.602 3.24.431 6.569 2.761 8.899 2.33 2.329 5.658 3.36 8.899 2.76 14.697-2.732 36.164-9.188 56.144-18.293l.001 73.932c-19.98-9.103-41.446-15.559-56.146-18.293z"/><path d="m262.903 233.268h-.01c-5.522 0-9.995 4.478-9.995 10s4.482 10 10.005 10 10-4.478 10-10-4.476-10-10-10z"/><path d="m306.594 384.041h-87.394c-5.522 0-10 4.478-10 10s4.478 10 10 10h87.394c5.522 0 10-4.478 10-10s-4.478-10-10-10z"/><path d="m319.819 41.939c3.468 8.332 15.793 7.924 18.694-.613 2.933-8.63-6.789-16.447-14.601-11.787-4.194 2.502-5.971 7.895-4.093 12.4z"/></g></g></svg>