<svg id="Capa_1" enable-background="new 0 0 510 510" height="512" viewBox="0 0 510 510" width="512" xmlns="http://www.w3.org/2000/svg"><g><g><g><path d="m410.608 25.251c-34.275-18.773-40.565 26.469-75.105 22.047-36.854-4.718-30.953-39.798-68.982-39.798s-32.129 35.08-68.983 39.798c-34.54 4.422-40.83-40.82-75.105-22.047-43.483 23.816 29.066 108.975 29.066 108.975h115.022 115.022c-.001 0 72.549-85.159 29.065-108.975z" fill="#d6694b"/></g></g><g><g><path d="m146.181 173.726c-39.059 34.417-63.709 84.805-63.709 140.956 0 103.729 84.089 187.817 187.817 187.817 103.729 0 187.817-84.089 187.817-187.817 0-56.152-24.65-106.539-63.709-140.956" fill="#d6694b"/></g></g><g><g><circle cx="264.58" cy="434.075" fill="#e8b800" r="68.425"/></g></g><g><g><path d="m379.381 173.726h-218.183c-10.698 0-19.45-8.753-19.45-19.45v-.6c0-10.698 8.753-19.45 19.45-19.45h218.184c10.698 0 19.45 8.753 19.45 19.45v.6c-.001 10.698-8.753 19.45-19.451 19.45z" fill="#8c3d27"/></g></g><g><g><circle cx="120.318" cy="434.075" fill="#e8b800" r="68.425"/></g></g><g><g><circle cx="264.58" cy="434.075" fill="#fed402" r="39.31"/></g></g><g><g><circle cx="120.318" cy="434.075" fill="#fed402" r="39.31"/></g></g><g><g><circle cx="188.744" cy="434.075" fill="#e8b800" r="68.425"/></g></g><g><g><circle cx="188.744" cy="434.075" fill="#fed402" r="39.31"/></g></g><g><path d="m401.33 169.886c3.144-4.408 5.002-9.795 5.002-15.61v-.6c0-9.561-5.009-17.97-12.537-22.755 4.686-6.091 11.267-15.12 17.667-25.519 16.101-26.164 22.781-47.484 19.857-63.369-1.874-10.179-7.79-18.257-17.108-23.361-23.146-12.678-37.242-.807-48.569 8.729-8.958 7.542-16.686 14.057-29.186 12.458-14.853-1.901-21.132-9.376-28.402-18.032-8.595-10.231-18.335-21.827-41.533-21.827s-32.939 11.596-41.533 21.826c-7.271 8.656-13.55 16.131-28.402 18.032-12.488 1.6-20.227-4.915-29.186-12.457-11.327-9.537-25.423-21.406-48.57-8.729-9.318 5.104-15.234 13.182-17.107 23.361-2.924 15.885 3.757 37.205 19.857 63.369 7.868 12.785 16.012 23.503 20.568 29.229-4.879 4.88-7.9 11.616-7.9 19.045v.6c0 5.819 1.86 11.208 5.008 15.618-25.871 23.425-45.011 53.223-55.392 86.374-1.238 3.953.963 8.161 4.916 9.398 3.955 1.24 8.162-.963 9.398-4.916 9.547-30.489 27.109-57.927 50.87-79.523h12.151 12.129c-13.368 11.979-20.495 26.029-24.281 37.253-1.324 3.925.785 8.18 4.709 9.503.795.268 1.603.396 2.398.396 3.13 0 6.05-1.975 7.105-5.105 4.437-13.154 14.408-30.986 36.71-42.047h27.32c-4.113 6.128-7.387 12.663-9.775 19.552-1.356 3.914.716 8.186 4.63 9.543.813.282 1.642.416 2.457.416 3.106 0 6.011-1.945 7.086-5.045 3.084-8.896 7.997-17.107 14.587-24.465h48.03c6.59 7.358 11.503 15.569 14.588 24.465 1.074 3.101 3.979 5.045 7.086 5.045.814 0 1.644-.134 2.457-.416 3.913-1.357 5.986-5.629 4.629-9.543-2.388-6.889-5.662-13.424-9.775-19.552h27.321c22.301 11.06 32.273 28.893 36.71 42.047 1.056 3.13 3.976 5.105 7.105 5.105.795 0 1.604-.127 2.398-.396 3.925-1.324 6.033-5.579 4.709-9.503-3.786-11.224-10.914-25.275-24.281-37.253h12.129 12.15c37.581 34.166 59.075 82.642 59.075 133.457 0 21.054-3.594 41.674-10.681 61.286-1.407 3.896.609 8.195 4.505 9.603.842.304 1.702.448 2.549.448 3.069 0 5.95-1.899 7.054-4.953 7.68-21.251 11.573-43.586 11.573-66.384.002-55.169-23.4-107.78-64.275-144.798zm-284.855-125.143c1.074-5.827 4.112-9.931 9.56-12.915 14.137-7.743 20.749-2.176 31.704 7.047 9.682 8.151 21.729 18.296 40.751 15.861 20.665-2.646 30.268-14.078 37.983-23.264 7.732-9.202 13.839-16.472 30.048-16.472s22.316 7.27 30.047 16.474c7.716 9.186 17.318 20.618 37.983 23.264 19.019 2.433 31.068-7.71 40.751-15.862 10.954-9.223 17.564-14.79 31.703-7.047 5.448 2.984 8.485 7.087 9.56 12.915 4.328 23.475-24.533 64.821-38.537 81.982h-44.637c5.15-7.068 11.683-16.63 17.734-27.238 2.053-3.598.799-8.179-2.799-10.23-3.599-2.053-8.179-.799-10.23 2.799-8.894 15.593-19.145 29.112-23.526 34.67h-41.22c-2.243-8.283-4.064-16.303-5.384-23.841-.714-4.08-4.598-6.808-8.682-6.094-4.08.715-6.808 4.602-6.094 8.682 1.188 6.783 2.757 13.916 4.645 21.253h-39.364c-4.376-5.548-14.61-19.04-23.525-34.67-2.053-3.598-6.633-4.852-10.231-2.799-3.598 2.052-4.851 6.632-2.799 10.23 6.05 10.608 12.583 20.17 17.734 27.238h-38.453-6.185c-14.003-17.162-42.865-58.509-38.537-81.983zm44.723 121.483c-6.59 0-11.951-5.361-11.951-11.95v-.6c0-6.589 5.361-11.95 11.951-11.95h218.184c6.589 0 11.95 5.361 11.95 11.95v.6c0 6.589-5.361 11.95-11.95 11.95z"/><path d="m437.125 401.355c-3.596-2.058-8.179-.813-10.235 2.782-15.374 26.854-37.536 49.454-64.092 65.357-14.284 8.555-29.678 15.025-45.685 19.318 14.401-13.826 23.392-33.246 23.392-54.738 0-41.865-34.06-75.925-75.925-75.925-13.35 0-26.468 3.516-37.962 10.164-11.157-6.451-24.086-10.164-37.874-10.164-12.394 0-24.092 3.004-34.436 8.292-.498-.426-1.055-.799-1.676-1.091-10.146-4.778-21.018-7.201-32.313-7.201-8.405 0-16.486 1.393-24.049 3.927-4.176-15.375-6.297-31.297-6.297-47.394 0-9.261.708-18.559 2.104-27.634.63-4.094-2.178-7.923-6.272-8.553-4.096-.63-7.923 2.178-8.553 6.272-1.512 9.828-2.278 19.893-2.278 29.915 0 18.233 2.516 36.264 7.466 53.634-22.718 13.138-38.047 37.684-38.047 65.759 0 41.865 34.06 75.925 75.925 75.925 11.294 0 22.166-2.423 32.313-7.202.622-.293 1.178-.666 1.676-1.091 10.344 5.289 22.043 8.293 34.436 8.293 13.827 0 26.79-3.733 37.969-10.218.317.251.652.487 1.017.69 11.209 6.233 23.953 9.528 36.851 9.528 1.949 0 3.875-.098 5.788-.243.586.147 1.196.234 1.827.234h.076c34.664-.345 68.633-9.898 98.235-27.627 28.755-17.222 52.753-41.694 69.401-70.773 2.058-3.595.813-8.178-2.782-10.236zm-316.807 93.645c-33.594 0-60.925-27.331-60.925-60.925s27.331-60.925 60.925-60.925c6.646 0 13.103 1.054 19.281 3.118-4.113 3.501-7.848 7.429-11.137 11.72-2.68-.47-5.411-.723-8.145-.723-25.811 0-46.81 20.999-46.81 46.81s20.999 46.81 46.81 46.81c2.736 0 5.466-.25 8.146-.72 3.288 4.29 7.023 8.217 11.135 11.718-6.177 2.063-12.634 3.117-19.28 3.117zm-.495-29.128c-17.312-.267-31.314-14.423-31.314-31.797s14.003-31.53 31.314-31.797c-4.484 9.68-7.005 20.447-7.005 31.797s2.521 22.117 7.005 31.797zm7.995-31.797c0-33.594 27.331-60.925 60.925-60.925s60.925 27.331 60.925 60.925-27.33 60.925-60.924 60.925-60.926-27.331-60.926-60.925zm130.163-31.098c2.159-.455 4.363-.712 6.599-.712 17.54 0 31.809 14.27 31.809 31.81s-14.27 31.81-31.809 31.81c-2.237 0-4.441-.255-6.6-.711 4.284-9.499 6.688-20.02 6.688-31.099.001-11.079-2.404-21.6-6.687-31.098zm-17.841 86.92c3.706-3.415 7.066-7.197 10.036-11.282 4.641 1.5 9.482 2.27 14.404 2.27 25.811 0 46.809-20.999 46.809-46.81s-20.998-46.81-46.809-46.81c-4.922 0-9.761.77-14.403 2.271-2.969-4.083-6.326-7.863-10.031-11.277 7.662-3.351 15.987-5.108 24.434-5.108 33.594 0 60.925 27.331 60.925 60.925s-27.331 60.924-60.925 60.924c-8.433 0-16.778-1.753-24.44-5.103z"/><path d="m188.744 387.265c-25.811 0-46.81 20.999-46.81 46.81s20.999 46.81 46.81 46.81 46.81-20.999 46.81-46.81-20.999-46.81-46.81-46.81zm0 78.619c-17.54 0-31.81-14.27-31.81-31.81s14.27-31.81 31.81-31.81 31.81 14.27 31.81 31.81-14.27 31.81-31.81 31.81z"/></g></g></svg>