<svg id="Layer_1" enable-background="new 0 0 512.635 512.635" height="512" viewBox="0 0 512.635 512.635" width="512" xmlns="http://www.w3.org/2000/svg"><g><g><g><path d="m156.864 97.303-.098.71c-1.477 10.69 6.828 20.223 17.62 20.223h.481c11.082 0 19.467-10.025 17.508-20.932h-35.511z" fill="#ffb69e"/><ellipse cx="174.103" cy="41.964" fill="#ffb69e" rx="41.963" ry="41.963" transform="matrix(.383 -.924 .924 .383 68.708 186.755)"/><g><g id="XMLID_98_"><path d="m111.506 281.155v-135.974c.019-3.865 4.278-7.384 8.574-7.384l8.441-19.562-8.441-20.932c-26.744 0-48.937 21.387-49.069 47.777v136.076l20.247 4.331z" fill="#dcbe82"/></g><g id="XMLID_97_"><path d="m236.62 145.079v60.875h40.495v-60.977c-.132-26.288-22.425-47.675-49.125-47.675l-4.185 14.125 4.185 26.37c4.255 0 8.611 3.52 8.63 7.282z" fill="#dcbe82"/></g></g><g><g id="XMLID_96_"><path d="m71.012 281.155v12.674c0 11.182 9.065 20.247 20.247 20.247s20.247-9.065 20.247-20.247v-12.674z" fill="#ffb69e"/></g></g><g><g id="XMLID_95_"><path d="m203.645 509.845c-13.419 0-24.297-10.878-24.297-24.297v-194.208c0-13.419 10.878-24.297 24.297-24.297s24.297 10.878 24.297 24.297v194.208c0 13.419-10.878 24.297-24.297 24.297z" fill="#373c41"/></g><g id="XMLID_94_"><path d="m144.561 509.845c-13.419 0-24.297-10.878-24.297-24.297v-194.208c0-13.419 10.878-24.297 24.297-24.297s24.297 10.878 24.297 24.297v194.208c0 13.419-10.879 24.297-24.297 24.297z" fill="#50555a"/></g></g><path d="m235.029 314.999-6.493-49.988-2.546-6.301 2-6.161v-155.246h-35.614c.331 9.528-8.518 17.614-17.761 17.614-9.907 0-17.249-8.056-17.75-17.614h-36.783v155.246l2.749 6.231-3.38 6.231-6.304 49.988c-.642 5.091 3.326 9.591 8.458 9.591h104.967c5.131 0 9.099-4.5 8.457-9.591z" fill="#783c28"/><g fill="#dcbe82"><path d="m228.536 265.011-.546-6.301v-6.161h-107.909v6.161l-.631 6.301z"/><g><ellipse cx="174.423" cy="138.063" rx="5.773" ry="5.773" transform="matrix(.099 -.995 .995 .099 19.844 298.033)"/><path d="m174.423 161.022c-3.189 0-5.773 2.585-5.773 5.774 0 3.188 2.585 5.773 5.773 5.773s5.773-2.585 5.773-5.773c0-3.189-2.585-5.774-5.773-5.774z"/><path d="m174.423 189.755c-3.189 0-5.773 2.585-5.773 5.774 0 3.188 2.585 5.773 5.773 5.773s5.773-2.585 5.773-5.773c0-3.189-2.585-5.774-5.773-5.774z"/><ellipse cx="174.423" cy="224.262" rx="5.773" ry="5.773" transform="matrix(.998 -.071 .071 .998 -15.459 12.929)"/></g></g></g><path d="m334.202 169.91c-5.692-9.626-18.107-12.814-27.734-7.123l-11.953 7.068-3.035 25.673 21.185 10.639 14.415-8.524c9.625-5.691 12.814-18.108 7.122-27.733z" fill="#ba6746"/><path d="m294.515 169.855-17.4 10.289-25.69 19.05c0-.004-14.805 0-14.805 0v16.445c0 15.742 17.144 25.357 30.554 17.428l45.491-26.9z" fill="#dcbe82"/></g><g><path d="m355.645 512.635c-5.523 0-10-4.477-10-10v-440.068c0-5.523 4.477-10 10-10s10 4.477 10 10v440.069c0 5.522-4.477 9.999-10 9.999z" fill="#6c9baa"/></g><g><path d="m293.706 59.967v201.008c0 3.97 4.171 6.557 7.728 4.794l55.008-27.278 55.008 27.278c3.557 1.764 7.728-.824 7.728-4.794v-201.008z" fill="#dc1428"/></g><g><path d="m431.624 69.967h-152.246c-5.523 0-10-4.477-10-10s4.477-10 10-10h152.246c5.523 0 10 4.477 10 10s-4.477 10-10 10z" fill="#6c9baa"/></g><g><path d="m356.136 58.026c-14.689 0-26.641-11.951-26.641-26.64s11.951-26.64 26.641-26.64 26.64 11.951 26.64 26.64-11.951 26.64-26.64 26.64zm0-33.281c-3.662 0-6.641 2.979-6.641 6.64s2.979 6.64 6.641 6.64 6.64-2.979 6.64-6.64-2.978-6.64-6.64-6.64z" fill="#6c9baa"/></g><g><path d="m372.647 158.873-14.722-25.068c-1.072-1.825-3.721-1.793-4.748.058l-13.882 25.01-10.982-19.785c-1.396-2.515-5.224-1.524-5.224 1.353v39.756c0 1.768 1.434 3.202 3.202 3.202h60.3c1.768 0 3.202-1.434 3.202-3.202v-40.271c0-2.84-3.752-3.861-5.19-1.411z" fill="#ffd23c"/></g></g></svg>