<?xml version="1.0" encoding="iso-8859-1"?>
<!-- Generator: Adobe Illustrator 19.0.0, SVG Export Plug-In . SVG Version: 6.00 Build 0)  -->
<svg version="1.1" id="Capa_1" xmlns="http://www.w3.org/2000/svg" xmlns:xlink="http://www.w3.org/1999/xlink" x="0px" y="0px"
	 viewBox="0 0 512 512" style="enable-background:new 0 0 512 512;" xml:space="preserve">
<path style="fill:#F9BB4B;" d="M107.897,122.074c2.764,1.98,3.715,5.652,2.106,8.648c-15.623,29.083-33.969,58.079-51.614,77.035
	c10.738,15.844,23.116,31.355,36.895,44.026c11.807,10.857,29.824,12.264,43.433,2.259c14.363-10.56,34.14-27.036,54.304-49.872
	c-16.679-18.418-33.79-46.339-48.478-73.748c-1.715-3.201-1.015-7.24,1.803-9.533c22.6-18.387,10.29-54.504-17.975-56.263
	C96.504,62.644,82.144,103.632,107.897,122.074z"/>
<path style="fill:#F2AA36;" d="M138.852,184.22c6.632-9.042,13.23-18.758,19.708-28.899c-4.846-8.166-9.55-16.565-14.026-24.92
	c-1.715-3.202-1.004-7.22,1.814-9.513c22.6-18.387,10.289-54.504-17.975-56.263c-31.866-1.983-46.226,39.005-20.474,57.447
	c2.764,1.98,3.715,5.652,2.106,8.648C94.381,159.804,76.035,188.8,58.39,207.756c10.738,15.844,23.116,31.355,36.895,44.026
	c11.807,10.857,29.824,12.264,43.433,2.259c1.492-1.097,3.055-2.273,4.658-3.498c-0.848-0.996-1.69-1.997-2.528-3.003
	C125.714,229.369,124.865,203.29,138.852,184.22z"/>
<path style="fill:#F9BB4B;" d="M363.307,119.319c3.728,3.527,4.727,9.049,2.266,13.551c-14.304,26.169-30.782,53.176-46.873,70.987
	c20.261,23.002,40.153,39.576,54.584,50.185c13.563,9.971,31.586,8.635,43.434-2.259c13.679-12.579,25.977-27.957,36.66-43.681
	c-17.43-18.674-35.565-47.273-51.1-75.832c-1.998-3.672-1.117-8.328,2.191-10.883c23.285-17.981,11.424-54.97-17.341-56.761
	c-18.435-1.147-33.745,13.464-33.745,31.653C353.382,105.355,357.196,113.539,363.307,119.319z"/>
<path style="fill:#F2AA36;" d="M406.097,176.091c3.78-5.676,7.519-11.623,11.183-17.706c-5.184-8.516-10.219-17.318-15.005-26.117
	c-2.035-3.741-1.013-8.376,2.345-10.998c23.082-18.024,11.21-54.857-17.492-56.643c-18.435-1.147-33.745,13.464-33.745,31.653
	c0,9.101,3.833,17.304,9.974,23.086c3.686,3.472,4.721,8.921,2.293,13.365c-14.321,26.212-30.83,53.284-46.95,71.127
	c20.261,23.002,40.153,39.576,54.584,50.185c13.563,9.971,31.586,8.635,43.433-2.259c3.011-2.768,5.95-5.679,8.824-8.693
	c-3.92-3.226-8.044-6.767-12.312-10.631C397.242,217.994,394.147,194.035,406.097,176.091z"/>
<path style="fill:#F9C85D;" d="M3.933,133.913c13.478,27.268,6.857,49.815,8.553,145.115c0,20.979,0,119.185,0,143.034h487.029
	c0-76.533,0-172.522,0-247.315c0-17.754,3.318-29.183,8.703-41.183c8.24-18.349,1.774-50.642-15.322-50.642
	c-14.607,0-21.917,23.884-18.003,42.293c1.826,8.554,8.925,19.504,2.931,36.707c-14.3,27.219-35.272,60.951-61.107,84.709
	c-11.811,10.86-29.829,12.261-43.434,2.259c-25.722-18.911-68.803-56.77-100.387-116.224c-2.039-3.84-0.861-8.528,2.596-11.164
	c24.06-18.342,11.1-57.13-19.416-56.939c-0.025,0-0.051-0.001-0.076-0.001c-0.026,0-0.051,0.001-0.076,0.001
	c-30.532-0.19-43.62,38.846-19.177,57.121c3.344,2.5,4.453,7.03,2.497,10.719c-31.596,59.605-74.766,97.549-100.526,116.488
	c-13.566,9.972-31.588,8.633-43.433-2.259c-25.835-23.757-46.807-57.49-61.107-84.709c-3.349-9.608-2.961-20.191,0.876-29.82
	c8.215-20.569-0.484-49.18-15.948-49.18C2.042,82.923-5.016,115.767,3.933,133.913z"/>
<path style="fill:#F9BB4B;" d="M64.459,211.292c-12.003-16.554-22.208-34-30.283-49.369c-3.349-9.608-2.961-20.191,0.876-29.82
	c8.215-20.569-0.484-49.18-15.948-49.18c-17.062,0-24.12,32.844-15.172,50.992c13.478,27.268,6.857,49.815,8.553,145.115
	c0,20.979,0,119.185,0,143.034h52.028c0-23.85,0-122.055,0-143.034C64.009,250.699,64.239,228.8,64.459,211.292z"/>
<circle style="fill:#F96989;" cx="385.102" cy="324.915" r="23.215"/>
<path style="fill:#ED5A81;" d="M385.099,324.914c-4.296-7.442-3.999-16.27,0.002-23.215c-3.947-0.004-7.948,0.993-11.611,3.108
	c-11.106,6.411-14.91,20.612-8.499,31.717c6.412,11.106,20.612,14.91,31.717,8.499c3.664-2.115,6.527-5.081,8.497-8.502
	C397.189,336.513,389.395,332.356,385.099,324.914z"/>
<ellipse style="fill:#F96989;" cx="256" cy="325.346" rx="35.379" ry="42.192"/>
<path style="fill:#ED5A81;" d="M279.695,355.513c-19.54,0-35.38-18.89-35.38-42.191c0-11.81,4.074-22.481,10.632-30.14
	c-19.051,0.665-34.328,19.279-34.328,42.159c0,23.302,15.84,42.191,35.38,42.191c9.636,0,18.368-4.6,24.748-12.052
	C280.398,355.494,280.049,355.513,279.695,355.513z"/>
<path style="fill:#F4A32C;" d="M498.092,416.912c-54.655,0-430.601,0-484.184,0C6.227,416.912,0,423.747,0,432.178
	c0,8.43,6.227,15.266,13.908,15.266c54.655,0,430.601,0,484.184,0c7.682,0,13.908-6.834,13.908-15.266
	C512,423.746,505.773,416.912,498.092,416.912z"/>
<path style="fill:#ED9015;" d="M51.513,432.178c0-8.431,6.227-15.266,13.908-15.266c-24.273,0-42.479,0-51.513,0
	C6.227,416.912,0,423.746,0,432.178c0,8.431,6.227,15.266,13.908,15.266c9.157,0,27.343,0,51.513,0
	C57.739,447.444,51.513,440.609,51.513,432.178z"/>
<circle style="fill:#F96989;" cx="124.403" cy="324.915" r="23.215"/>
<path style="fill:#ED5A81;" d="M124.399,324.914c-4.296-7.442-3.999-16.27,0.002-23.215c-3.947-0.004-7.948,0.993-11.611,3.108
	c-11.106,6.411-14.91,20.612-8.499,31.717c6.412,11.106,20.612,14.91,31.717,8.499c3.664-2.115,6.527-5.081,8.497-8.502
	C136.489,336.513,128.695,332.356,124.399,324.914z"/>
<g>
</g>
<g>
</g>
<g>
</g>
<g>
</g>
<g>
</g>
<g>
</g>
<g>
</g>
<g>
</g>
<g>
</g>
<g>
</g>
<g>
</g>
<g>
</g>
<g>
</g>
<g>
</g>
<g>
</g>
</svg>
