<?xml version="1.0" encoding="iso-8859-1"?>
<!-- Generator: Adobe Illustrator 19.0.0, SVG Export Plug-In . SVG Version: 6.00 Build 0)  -->
<svg version="1.1" id="Capa_1" xmlns="http://www.w3.org/2000/svg" xmlns:xlink="http://www.w3.org/1999/xlink" x="0px" y="0px"
	 viewBox="0 0 512.001 512.001" style="enable-background:new 0 0 512.001 512.001;" xml:space="preserve">
<path style="fill:#EADCD6;" d="M76.526,78.478v355.763h320.311c0-11.171,0-348.544,0-355.763
	C396.837,78.478,76.526,78.478,76.526,78.478z"/>
<path style="fill:#DDCDC7;" d="M76.526,78.478v355.763h20.059c0-11.171,0-348.544,0-355.763
	C96.585,78.478,76.526,78.478,76.526,78.478z"/>
<path style="fill:#99523F;" d="M458.181,48.79L438.479,36.93v47.719l19.702-11.861C467.223,67.345,467.223,54.234,458.181,48.79z"/>
<path style="fill:#8E4739;" d="M460.37,50.448c-0.666-0.601-1.378-1.169-2.189-1.658L438.479,36.93v47.719l19.702-11.86
	c0.811-0.488,1.524-1.057,2.189-1.658V50.448z"/>
<path style="fill:#99523F;" d="M15.182,48.79L34.883,36.93v47.719L15.182,72.788C6.139,67.345,6.139,54.234,15.182,48.79z"/>
<path style="fill:#8E4739;" d="M28.459,40.798L15.182,48.79c-9.043,5.444-9.043,18.555,0,23.997l13.277,7.992V40.798z"/>
<rect x="55.353" y="35.254" style="fill:#BA7052;" width="363.066" height="51.074"/>
<g>
	<rect x="55.353" y="66.265" style="fill:#AD644B;" width="363.066" height="20.059"/>
	<path style="fill:#AD644B;" d="M427.269,20.559h-3.18c-7.173,0-13.042,5.869-13.042,13.042v54.376
		c0,7.173,5.869,13.042,13.042,13.042h3.18c7.173,0,13.042-5.869,13.042-13.042V33.602
		C440.311,26.428,434.442,20.559,427.269,20.559z"/>
	<path style="fill:#AD644B;" d="M46.093,20.559h3.18c7.173,0,13.042,5.869,13.042,13.042v54.376c0,7.173-5.869,13.042-13.042,13.042
		h-3.18c-7.173,0-13.042-5.869-13.042-13.042V33.602C33.051,26.428,38.919,20.559,46.093,20.559z"/>
</g>
<g>
	<path style="fill:#99523F;" d="M431.105,87.978V33.602c0-3.96,1.794-7.516,4.604-9.913c-2.28-1.945-5.225-3.129-8.439-3.129h-3.18
		c-7.173,0-13.042,5.869-13.042,13.042v54.377c0,7.173,5.869,13.042,13.042,13.042h3.18c3.213,0,6.16-1.183,8.439-3.129
		C432.9,95.494,431.105,91.937,431.105,87.978z"/>
	<path style="fill:#99523F;" d="M53.11,87.978V33.602c0-3.96,1.794-7.516,4.604-9.913c-2.28-1.945-5.225-3.129-8.44-3.129h-3.18
		c-7.173,0-13.042,5.869-13.042,13.042v54.377c0,7.173,5.869,13.042,13.042,13.042h3.18c3.213,0,6.16-1.183,8.44-3.129
		C54.904,95.494,53.11,91.937,53.11,87.978z"/>
	<path style="fill:#99523F;" d="M458.181,440.599l-19.702-11.861v47.719l19.702-11.861
		C467.223,459.153,467.223,446.042,458.181,440.599z"/>
</g>
<path style="fill:#8E4739;" d="M460.37,442.257c-0.666-0.601-1.378-1.169-2.189-1.658l-19.702-11.861v47.718l19.702-11.86
	c0.811-0.488,1.524-1.057,2.189-1.658V442.257z"/>
<path style="fill:#99523F;" d="M15.182,440.599l19.702-11.861v47.719l-19.702-11.861C6.139,459.153,6.139,446.042,15.182,440.599z"
	/>
<path style="fill:#8E4739;" d="M28.459,432.606l-13.277,7.992c-9.043,5.444-9.043,18.555,0,23.997l13.277,7.992V432.606z"/>
<rect x="55.353" y="427.065" style="fill:#BA7052;" width="363.066" height="51.074"/>
<g>
	<rect x="55.353" y="458.076" style="fill:#AD644B;" width="363.066" height="20.059"/>
	<path style="fill:#AD644B;" d="M427.269,412.367h-3.18c-7.173,0-13.042,5.869-13.042,13.042v54.376
		c0,7.173,5.869,13.042,13.042,13.042h3.18c7.173,0,13.042-5.869,13.042-13.042V425.41
		C440.311,418.237,434.442,412.367,427.269,412.367z"/>
	<path style="fill:#AD644B;" d="M46.093,412.367h3.18c7.173,0,13.042,5.869,13.042,13.042v54.376
		c0,7.173-5.869,13.042-13.042,13.042h-3.18c-7.173,0-13.042-5.869-13.042-13.042V425.41
		C33.051,418.237,38.919,412.367,46.093,412.367z"/>
</g>
<g>
	<path style="fill:#99523F;" d="M431.105,479.785V425.41c0-3.96,1.794-7.516,4.604-9.913c-2.28-1.945-5.225-3.129-8.439-3.129h-3.18
		c-7.173,0-13.042,5.869-13.042,13.042v54.377c0,7.173,5.869,13.042,13.042,13.042h3.18c3.213,0,6.16-1.183,8.439-3.129
		C432.9,487.303,431.105,483.746,431.105,479.785z"/>
	<path style="fill:#99523F;" d="M53.11,479.785V425.41c0-3.96,1.794-7.516,4.604-9.913c-2.28-1.945-5.225-3.129-8.44-3.129h-3.18
		c-7.173,0-13.042,5.869-13.042,13.042v54.377c0,7.173,5.869,13.042,13.042,13.042h3.18c3.213,0,6.16-1.183,8.44-3.129
		C54.904,487.302,53.11,483.746,53.11,479.785z"/>
</g>
<path style="fill:#E1F3F9;" d="M453.337,221.313c3.873-1.476,4.304-6.785,0.724-8.876l-13.565-7.924
	c-1.307-0.763-1.106-2.71,0.328-3.191l23.268-7.815c41.078-13.796,56.172-64.271,29.144-98.141
	c-1.718-2.153-1.976-2.411-4.131-4.131c-33.87-27.028-84.346-11.934-98.141,29.145l-7.815,23.268
	c-0.481,1.434-2.428,1.635-3.191,0.328l-7.924-13.565c-2.091-3.58-7.4-3.149-8.876,0.724c-4.013,10.527-10.683,29.717-17.475,56.669
	c-0.527,2.09-3.229,2.658-4.543,0.95l-7.292-9.479c-2.486-3.231-7.613-2.116-8.525,1.857c-2.33,10.167-5.974,27.564-9.115,49.108
	c-0.266,1.822-2.38,2.707-3.859,1.611l-4.545-3.368c-3.212-2.38-7.809-0.622-8.606,3.296c-2.116,10.402-5.675,29.092-8.041,47.913
	c-0.305,2.422,0.523,4.851,2.249,6.577l4.643,4.644c1.824,1.824,4.39,2.699,6.948,2.376c18.746-2.366,37.334-5.905,47.696-8.014
	c3.917-0.797,5.675-5.394,3.296-8.606l-3.368-4.545c-1.096-1.479-0.212-3.594,1.611-3.859c21.544-3.141,38.941-6.785,49.107-9.115
	c3.975-0.911,5.092-6.037,1.859-8.523c-3.213-2.472-6.79-5.223-9.485-7.296c-1.708-1.314-1.136-4.014,0.953-4.54
	C423.62,231.997,442.811,225.327,453.337,221.313z"/>
<path style="fill:#CBE8EF;" d="M319.632,245.76c0.797-3.918,5.394-5.676,8.606-3.296l4.545,3.368
	c1.479,1.096,3.594,0.212,3.859-1.611c3.141-21.545,6.785-38.941,9.115-49.108c0.912-3.975,6.038-5.089,8.525-1.857l7.292,9.479
	c1.314,1.708,4.017,1.14,4.543-0.95c6.792-26.952,13.462-46.143,17.475-56.669c1.476-3.873,6.786-4.304,8.876-0.724l7.924,13.565
	c0.763,1.307,2.71,1.106,3.191-0.328l7.815-23.268c11.771-35.049,50.244-51.175,82.322-38.367c-2.142-2.753-2.417-3.004-4.617-4.759
	c-33.87-27.028-84.346-11.934-98.141,29.145l-7.815,23.268c-0.481,1.434-2.428,1.635-3.191,0.328l-7.924-13.565
	c-2.091-3.58-7.4-3.149-8.876,0.724c-4.013,10.527-10.683,29.717-17.475,56.669c-0.527,2.09-3.229,2.658-4.543,0.949l-7.292-9.479
	c-2.486-3.231-7.613-2.116-8.525,1.857c-2.33,10.167-5.974,27.564-9.115,49.108c-0.266,1.822-2.38,2.707-3.859,1.611l-4.545-3.368
	c-3.211-2.38-7.809-0.622-8.606,3.296c-2.117,10.402-5.675,29.092-8.041,47.913c-0.305,2.423,0.523,4.851,2.249,6.577l4.643,4.644
	c1.824,1.824,4.39,2.699,6.948,2.376c2.261-0.286,4.519-0.589,6.761-0.904C314.122,274.005,317.564,255.925,319.632,245.76z"/>
<path style="fill:#F8BF00;" d="M236.92,332.181l-19.199,19.199c-0.656,0.656-1.096,1.495-1.261,2.4l-2.037,11.234
	c-0.545,3.005,2.028,5.578,5.033,5.033l11.235-2.036c0.905-0.164,1.744-0.605,2.4-1.261l19.199-19.199L236.92,332.181z"/>
<path style="fill:#EFA603;" d="M229.224,358.152c0.163-0.906,0.605-1.745,1.261-2.4l15.003-15.003l-8.567-8.567l-19.199,19.199
	c-0.656,0.656-1.096,1.495-1.261,2.4l-2.037,11.234c-0.545,3.005,2.028,5.578,5.033,5.033l7.87-1.426L229.224,358.152z"/>
<path style="fill:#75706B;" d="M268.794,334.699l-19.021-19.021c-4.244-4.244-11.126-4.244-15.37,0
	c-4.244,4.244-4.244,11.126,0,15.37l19.021,19.021c4.244,4.244,11.126,4.244,15.37,0
	C273.038,345.825,273.038,338.944,268.794,334.699z"/>
<path style="fill:#635E5A;" d="M268.289,350.069l-19.021-19.021c-4.244-4.244-4.244-11.126,0-15.37
	c0.081-0.081,0.169-0.15,0.252-0.228c-4.261-4.005-10.954-3.936-15.118,0.228c-4.244,4.244-4.244,11.126,0,15.37l19.021,19.021
	c4.163,4.163,10.858,4.232,15.118,0.228C268.459,350.219,268.37,350.151,268.289,350.069z"/>
<path d="M135.233,145.143h184.253c4.155,0,7.522-3.367,7.522-7.522c0-4.155-3.367-7.522-7.522-7.522H135.233
	c-4.155,0-7.522,3.367-7.522,7.522C127.711,141.777,131.078,145.143,135.233,145.143z"/>
<path d="M135.233,319.767h62.048c4.155,0,7.522-3.367,7.522-7.522s-3.367-7.522-7.522-7.522h-62.048
	c-4.155,0-7.522,3.367-7.522,7.522S131.078,319.767,135.233,319.767z"/>
<path d="M197.282,339.649h-62.048c-4.155,0-7.522,3.367-7.522,7.522s3.367,7.522,7.522,7.522h62.048
	c4.155,0,7.522-3.367,7.522-7.522S201.437,339.649,197.282,339.649z"/>
<path d="M197.282,374.572h-62.048c-4.155,0-7.522,3.367-7.522,7.522s3.367,7.522,7.522,7.522h62.048
	c4.155,0,7.522-3.367,7.522-7.522S201.437,374.572,197.282,374.572z"/>
<path d="M306.99,237.206c6.063,4.488,14.696,0.869,15.78-6.57c2.157-14.802,4.825-29.463,7.749-42.897l3.778,4.909
	c5.177,6.736,15.755,4.427,17.799-3.696c5.648-22.41,11.185-39.37,15.314-50.732l5.173,8.856c0.081,0.138,0.183,0.26,0.271,0.393
	c4.303,6.563,14.134,5.081,16.547-2.119c11.825-35.205,6.294-18.746,7.871-23.421c12.802-37.74,59.559-49.119,87.87-24.169
	c5.506,6.261,9.944,14.538,11.994,23.743c0.903,4.055,4.924,6.617,8.976,5.707c4.055-0.902,6.61-4.921,5.707-8.976
	c-2.302-10.338-6.871-19.843-13.581-28.252c-6.56-8.228-19.619-15.181-30.304-18.135c2.36-3.38,3.674-7.441,3.674-11.751
	c-0.001-7.276-3.722-13.86-9.955-17.613l-14.696-8.847c0-13.046-9.951-21.293-20.564-21.293h-3.18
	c-9.298,0-17.165,6.207-19.699,14.693H68.095c-2.534-8.486-10.401-14.693-19.699-14.693h-3.18c-10.616,0-20.564,8.245-20.564,21.293
	L9.955,42.484C3.722,46.237,0,52.82,0,60.096c0,7.276,3.722,13.86,9.955,17.614l14.696,8.848v0.727
	c0,11.339,9.225,20.564,20.564,20.564h3.18c9.298,0,17.165-6.207,19.699-14.692h0.031v325.689h-0.031
	c-2.534-8.485-10.402-14.692-19.699-14.692h-3.18c-10.582,0-20.564,8.211-20.564,21.292l-14.696,8.848
	C3.722,438.044,0.001,444.627,0,451.904c0,7.276,3.721,13.86,9.955,17.615l14.696,8.847v0.727c0,11.34,9.225,20.565,20.564,20.565
	h3.18c9.298,0,17.165-6.207,19.699-14.693h150.157c4.155,0,7.522-3.367,7.522-7.522s-3.367-7.522-7.522-7.522H68.961V433.89
	c14.108,0,315.588,0,333.686,0v36.031H253.355c-4.155,0-7.522,3.367-7.522,7.522s3.367,7.522,7.522,7.522h150.156
	c2.534,8.486,10.401,14.693,19.699,14.693h3.18c10.616,0,20.564-8.245,20.564-21.293l14.697-8.848
	c6.233-3.753,9.954-10.337,9.954-17.614c-0.001-7.276-3.722-13.86-9.955-17.613l-14.696-8.848c0-13.049-9.955-21.292-20.564-21.292
	h-3.18c-9.298,0-17.165,6.207-19.699,14.692h-0.031V265.94c0.218-0.05,0.446-0.101,0.659-0.149
	c10.178-2.333,13.033-15.457,4.765-21.817l-1.473-1.133c21.72-5.834,37.696-11.372,47.707-15.19
	c9.772-3.727,10.869-17.122,1.837-22.401l-2.615-1.526c11.674-3.922,41.967-11.092,54.8-46.169c1.427-3.901-0.579-8.22-4.481-9.648
	c-3.897-1.424-8.22,0.58-9.648,4.481c-5.78,15.8-18.25,27.936-34.212,33.298L437.55,193.5c-7.544,2.534-8.59,12.81-1.728,16.818
	l8.857,5.173c-11.326,4.115-28.219,9.632-50.535,15.263c-0.004,0.001-0.007,0.001-0.007,0.001l-0.191,0.049
	c-8.287,2.09-10.322,12.83-3.689,17.805c1.833,1.41,0.214,0.163,4.903,3.772c-19.62,4.268-41.896,7.75-42.899,7.75
	c-3.5,0.512-6.402,2.768-7.759,6.035c-2.397,5.765,1.188,9.74,2.631,11.687c-12.201,2.425-25.507,4.75-37.928,6.481l133.296-133.295
	c2.938-2.939,2.938-7.701,0-10.638c-2.938-2.936-7.7-2.938-10.638,0L298.567,273.694c2.061-14.792,4.7-28.962,6.48-37.928
	L306.99,237.206z M446.956,51.196c7.195,4.332,9.607,5.072,9.607,8.899c0,3.905-2.711,4.75-9.607,8.901V51.196z M417.691,32.909
	c0-3.044,2.476-5.521,5.52-5.521h3.18c3.044,0,5.52,2.477,5.52,5.521c0,13.517,0,2.446,0,38.781
	c-4.993,1.302-9.881,3.178-14.221,5.376C417.691,66.648,417.691,54.927,417.691,32.909z M24.65,68.996
	c-7.2-4.335-9.606-5.073-9.606-8.9c0-3.831,2.407-4.564,9.606-8.899V68.996z M53.916,87.283c0,3.044-2.476,5.52-5.52,5.52h-3.18
	c-3.044,0-5.52-2.476-5.52-5.52V32.909c0-3.044,2.476-5.521,5.52-5.521h3.18c3.044,0,5.52,2.477,5.52,5.521
	C53.916,39.263,53.916,80.934,53.916,87.283z M24.65,460.805c-7.2-4.335-9.606-5.072-9.606-8.901c0-3.831,2.407-4.564,9.606-8.899
	V460.805z M53.916,479.092c0,3.044-2.476,5.521-5.52,5.521h-3.18c-3.044,0-5.52-2.477-5.52-5.521v-54.376
	c0-3.044,2.476-5.52,5.52-5.52h3.18c3.044,0,5.52,2.476,5.52,5.52C53.916,431.07,53.916,472.741,53.916,479.092z M446.957,443.004
	c6.878,4.141,9.606,4.989,9.606,8.899c0,3.903-2.707,4.747-9.606,8.901V443.004z M417.691,424.717c0-3.044,2.476-5.52,5.52-5.52
	h3.18c3.044,0,5.52,2.476,5.52,5.52v54.376c0,3.044-2.476,5.521-5.52,5.521h-3.18c-3.044,0-5.52-2.477-5.52-5.521
	C417.691,472.738,417.691,431.068,417.691,424.717z M68.961,78.112V42.081h333.686v36.031
	C392.084,78.112,86.719,78.112,68.961,78.112z M290.945,229.588c-0.312,1.533-0.669,3.323-1.053,5.286H135.233
	c-4.155,0-7.522,3.367-7.522,7.522s3.367,7.522,7.522,7.522H287.1c-1.075,6.139-2.179,12.917-3.174,19.88H135.233
	c-4.155,0-7.522,3.367-7.522,7.522s3.367,7.522,7.522,7.522h148.235c0.313,0.946,0.731,1.853,1.226,2.725l-10.3,10.3
	c-2.954-2.594-7.451-2.489-10.272,0.332c-2.819,2.819-2.925,7.316-0.331,10.271l-5.391,5.39l-4.191-4.191
	c-7.19-7.188-18.821-7.188-26.009,0c-5.992,5.993-6.975,15.021-3.01,22.031l-13.906,13.906c-1.752,1.753-2.899,3.972-3.315,6.419
	l-1.878,11.076c-0.643,3.789,0.597,7.675,3.315,10.393c2.245,2.245,5.287,3.481,8.412,3.481c1.331,0,1.018-0.003,13.053-2.044
	c2.443-0.413,4.662-1.559,6.422-3.315l13.913-13.913c7.194,4.048,16.186,2.833,22.025-3.004c7.168-7.17,7.168-18.837,0-26.008
	l-0.001-0.001l-4.191-4.191l5.391-5.391c1.415,1.243,3.182,1.873,4.953,1.873c1.925,0,3.85-0.734,5.32-2.203
	c2.819-2.819,2.925-7.316,0.33-10.271l10.322-10.322c2.938,1.642,6.292,2.305,9.703,1.879c15.482-1.954,32.892-4.979,48.255-8.107
	c8.32-1.695,12.668-10.687,9.199-18.166c9.735-1.542,18.462-3.146,25.924-4.639v149.694H83.17V93.156h305.267v11.807
	c-4.04,7.156-5.505,12.395-9.26,23.576l-1.526-2.615c-5.272-9.021-18.674-7.935-22.401,1.838
	c-5.794,15.198-11.003,32.126-15.189,47.705c-1.313-1.705-3.203-4.598-7.497-5.828c-2.046-0.588-4.181-0.608-6.204-0.141
	c-1.17-2.635-3.804-4.474-6.873-4.474H135.233c-4.155,0-7.522,3.367-7.522,7.522s3.367,7.522,7.522,7.522h181.578
	c-1.2,5.298-2.632,12.009-4.134,19.88H135.233c-4.155,0-7.522,3.367-7.522,7.522s3.367,7.522,7.522,7.522h174.757
	c-0.294,1.764-0.588,3.557-0.879,5.395C301.714,216.955,292.651,221.201,290.945,229.588z M238.839,325.04
	c-1.305-1.303-1.31-3.42,0.001-4.733c1.303-1.304,3.42-1.31,4.733,0.001c1.396,1.396-4.104-4.103,19.021,19.02
	c1.305,1.306,1.305,3.429,0.001,4.734c-1.307,1.305-3.429,1.304-4.734,0.001C250.861,337.062,250.2,336.402,238.839,325.04z
	 M240.078,347.556l-12.71,12.709l-5.7,0.967l0.966-5.7l12.71-12.71C238.248,345.725,237.174,344.65,240.078,347.556z"/>
<g>
</g>
<g>
</g>
<g>
</g>
<g>
</g>
<g>
</g>
<g>
</g>
<g>
</g>
<g>
</g>
<g>
</g>
<g>
</g>
<g>
</g>
<g>
</g>
<g>
</g>
<g>
</g>
<g>
</g>
</svg>
