<?xml version="1.0" encoding="iso-8859-1"?>
<!-- Generator: Adobe Illustrator 19.0.0, SVG Export Plug-In . SVG Version: 6.00 Build 0)  -->
<svg version="1.1" id="Capa_1" xmlns="http://www.w3.org/2000/svg" xmlns:xlink="http://www.w3.org/1999/xlink" x="0px" y="0px"
	 viewBox="0 0 215.042 215.042" style="enable-background:new 0 0 215.042 215.042;" xml:space="preserve">
<polygon style="fill:#777777;" points="3.414,107.521 34.134,125.311 34.134,89.73 "/>
<path d="M34.134,128.724c-0.591,0-1.181-0.154-1.71-0.459l-30.72-17.79c-1.055-0.611-1.703-1.736-1.703-2.954
	s0.649-2.343,1.703-2.954l30.72-17.79c1.055-0.611,2.357-0.613,3.415-0.003c1.056,0.609,1.708,1.737,1.708,2.958v35.582
	c0,1.22-0.652,2.347-1.708,2.958C35.31,128.574,34.723,128.724,34.134,128.724z M10.226,107.521l20.495,11.87v-23.74L10.226,107.521
	z"/>
<path d="M187.734,110.934H37.548c-1.884,0-3.413-1.529-3.413-3.413c0-1.884,1.529-3.413,3.413-3.413h150.187
	c1.884,0,3.413,1.529,3.413,3.413C191.148,109.405,189.619,110.934,187.734,110.934z"/>
<path d="M133.121,215.042c-0.355,0-0.715-0.056-1.068-0.172c-46.319-15.271-77.438-58.412-77.438-107.349
	S85.734,15.443,132.053,0.173c1.679-0.556,3.512,0.27,4.209,1.903l44.373,104.107c0.365,0.855,0.365,1.821,0,2.676l-44.373,104.107
	C135.712,214.256,134.454,215.042,133.121,215.042z M131.23,7.681c-41.878,15.176-69.789,54.905-69.789,99.84
	s27.911,84.664,69.789,99.84l42.556-99.84L131.23,7.681z"/>
<rect x="51.201" y="90.403" style="fill:#FBAD4A;" width="13.653" height="34.236"/>
<path d="M64.854,128.053H51.201c-1.884,0-3.413-1.529-3.413-3.413V90.401c0-1.884,1.529-3.413,3.413-3.413h13.653
	c1.884,0,3.413,1.529,3.413,3.413v34.239C68.268,126.524,66.739,128.053,64.854,128.053z M54.614,121.227h6.827V93.814h-6.827
	V121.227z"/>
<path style="fill:#85D839;" d="M187.75,117.793h23.878V97.25H187.75c-5.664,0-10.255,4.591-10.255,10.255v0.031
	C177.494,113.2,182.085,117.793,187.75,117.793z"/>
<path d="M211.628,121.206H187.75c-7.537,0-13.669-6.132-13.669-13.669c0-7.569,6.132-13.701,13.669-13.701h23.878
	c1.884,0,3.413,1.529,3.413,3.413v20.543C215.041,119.677,213.512,121.206,211.628,121.206z M187.75,100.663
	c-3.772,0-6.842,3.069-6.842,6.842c0,3.804,3.07,6.874,6.842,6.874h20.465v-13.716H187.75z"/>
<path d="M109.228,86.967H81.921c-1.884,0-3.413-1.529-3.413-3.413c0-1.884,1.529-3.413,3.413-3.413h27.307
	c1.884,0,3.413,1.529,3.413,3.413C112.641,85.438,111.112,86.967,109.228,86.967z"/>
<path d="M37.548,39.034H10.241c-1.884,0-3.413-1.529-3.413-3.413c0-1.884,1.529-3.413,3.413-3.413h27.307
	c1.884,0,3.413,1.529,3.413,3.413C40.961,37.505,39.432,39.034,37.548,39.034z"/>
<path d="M136.534,73.271h-30.72c-1.884,0-3.413-1.529-3.413-3.413c0-1.884,1.529-3.413,3.413-3.413h30.72
	c1.884,0,3.413,1.529,3.413,3.413C139.948,71.742,138.419,73.271,136.534,73.271z"/>
<path d="M201.388,138.324h-10.24c-1.884,0-3.413-1.529-3.413-3.413c0-1.884,1.529-3.413,3.413-3.413h10.24
	c1.884,0,3.413,1.529,3.413,3.413C204.801,136.795,203.272,138.324,201.388,138.324z"/>
<path d="M133.121,138.324h-30.72c-1.884,0-3.413-1.529-3.413-3.413c0-1.884,1.529-3.413,3.413-3.413h30.72
	c1.884,0,3.413,1.529,3.413,3.413C136.534,136.795,135.005,138.324,133.121,138.324z"/>
<path d="M37.548,172.563H6.828c-1.884,0-3.413-1.529-3.413-3.413s1.529-3.413,3.413-3.413h30.72c1.884,0,3.413,1.529,3.413,3.413
	S39.432,172.563,37.548,172.563z"/>
<g>
</g>
<g>
</g>
<g>
</g>
<g>
</g>
<g>
</g>
<g>
</g>
<g>
</g>
<g>
</g>
<g>
</g>
<g>
</g>
<g>
</g>
<g>
</g>
<g>
</g>
<g>
</g>
<g>
</g>
</svg>
