<svg id="Capa_1" enable-background="new 0 0 512.011 512.011" height="512" viewBox="0 0 512.011 512.011" width="512" xmlns="http://www.w3.org/2000/svg"><g><g><g><path d="m0 94.463v328.081c0 29.602 23.968 53.599 53.535 53.599h405.52c29.566 0 53.535-23.997 52.945-53.599l.011-328.081z" fill="#fbf4f4"/><path d="m255.995 94.463v381.68h203.061c29.566 0 53.535-23.997 52.944-53.599l.011-328.081z" fill="#eae0db"/></g><g><path d="m165.474 230.617c2.929 2.929 6.767 4.394 10.606 4.394s7.678-1.465 10.606-4.394l2.143-2.143 2.143 2.143c2.929 2.929 6.767 4.394 10.606 4.394s7.678-1.465 10.606-4.394c5.858-5.857 5.858-15.355 0-21.213l-2.143-2.143 2.143-2.143c5.858-5.857 5.858-15.355 0-21.213-5.857-5.857-15.355-5.857-21.212 0l-2.143 2.143-2.143-2.143c-5.857-5.857-15.355-5.857-21.212 0-5.858 5.857-5.858 15.355 0 21.213l2.143 2.143-2.143 2.143c-5.858 5.858-5.858 15.356 0 21.213z" fill="#edbdab"/><path d="m335.173 329.967c-5.857-5.857-15.355-5.857-21.212 0l-2.143 2.143-2.143-2.143c-5.857-5.857-15.355-5.857-21.212 0-5.858 5.857-5.858 15.355 0 21.213l2.143 2.143-2.143 2.143c-5.858 5.857-5.858 15.355 0 21.213 2.929 2.929 6.767 4.394 10.606 4.394s7.678-1.465 10.606-4.394l2.143-2.143 2.143 2.143c2.929 2.929 6.767 4.394 10.606 4.394s7.678-1.465 10.606-4.394c5.858-5.857 5.858-15.355 0-21.213l-2.143-2.143 2.143-2.143c5.859-5.858 5.859-15.356 0-21.213z" fill="#de9382"/><g><path d="m321.602 205.204h-36.981c-8.284 0-15 6.716-15 15s6.716 15 15 15h36.981c8.271 0 15 6.729 15 15s-6.728 15-15 15h-131.215c-24.813 0-44.999 20.186-44.999 45 0 24.813 20.186 45 44.999 45h38.271c8.284 0 15-6.716 15-15s-6.716-15-15-15h-38.271c-8.271 0-15-6.729-15-15 0-8.272 6.728-15 15-15h131.216c24.813 0 44.999-20.187 44.999-45s-20.187-45-45-45z" fill="#a56032"/><path d="m321.602 205.204h-36.981c-8.284 0-15 6.716-15 15s6.716 15 15 15h36.981c8.271 0 15 6.729 15 15s-6.728 15-15 15h-65.608v30h65.608c24.813 0 44.999-20.187 44.999-45s-20.186-45-44.999-45z" fill="#633a1e"/></g></g></g><g><path d="m511.989 414.204c0-27.8-22.536-50.336-50.335-50.336h-23.593c-8.284 0-15-6.716-15-15v-298c0-8.284 6.715-15 15-15h23.593c27.799 0 50.335 22.536 50.335 50.336h.011v328" fill="#c7bdb8"/><path d="m0 414.204c0-27.8 22.536-50.336 50.335-50.336h23.593c8.284 0 15-6.716 15-15v-298c0-8.284-6.716-15-15-15h-23.593c-27.799 0-50.335 22.536-50.335 50.336z" fill="#eae0db"/></g></g></svg>